<?xml version="1.0" encoding="UTF-8" standalone="no"?>
<svg xmlns="http://www.w3.org/2000/svg" width="48" height="48" version="1.1">
 <defs>
  <linearGradient id="a" y1="547.634" y2="499.679" x2="388.865" gradientUnits="userSpaceOnUse" gradientTransform="translate(-384.57,-499.8)" x1="428.816">
   <stop stop-color="#0c0f1e"/>
   <stop offset="1" stop-color="#131936"/>
  </linearGradient>
  <linearGradient id="b" y1="44" y2="12" x2="14" gradientUnits="userSpaceOnUse" x1="36">
   <stop stop-color="#0895a2"/>
   <stop offset="1" stop-color="#00dfe0"/>
  </linearGradient>
  <linearGradient id="c" y1="527.014" x1="406.501" y2="539.825" x2="419.974" gradientUnits="userSpaceOnUse" gradientTransform="translate(-384.57,-499.8)">
   <stop stop-color="#0c0f1e"/>
   <stop offset="1" stop-opacity="0"/>
  </linearGradient>
 </defs>
 <rect style="fill:url(#a)" height="40" rx="1" y="4" x="4" width="40" ry="1"/>
 <path style="fill:#000000;fill-opacity:1;opacity:0.3" d="M 4 42 L 4 43 C 4 43.554007 4.4459958 44 5 44 L 43 44 C 43.554004 44 44 43.554007 44 43 L 44 42 C 44 42.554007 43.554004 43 43 43 L 5 43 C 4.4459958 43 4 42.554007 4 42 z"/>
 <g transform="translate(1.1,1.1) translate(8.2320,7.7320) scale(1.437051)" style="opacity:0.35"><path d="m3 3v1 15h1 15v-1-13h-6.992188l-2-2-.007812.007813v-.007813h-6-1m6.00781 5h8.992188v10h-14v-8h3v-.007813l.007813.007813 2-2" fill="#0c0f1e" fill-rule="evenodd"/></g>
 <g transform="translate(8.2320,7.7320) scale(1.437051)"><path d="m3 3v1 15h1 15v-1-13h-6.992188l-2-2-.007812.007813v-.007813h-6-1m6.00781 5h8.992188v10h-14v-8h3v-.007813l.007813.007813 2-2" fill="url(#b)" fill-rule="evenodd"/></g>
 <path d="M 4,6 4,5 C 4,4.445993 4.445996,4 5,4 l 38,0 c 0.554004,0 1,0.445993 1,1 l 0,1 C 44,5.445993 43.554004,5 43,5 L 5,5 C 4.445996,5 4,5.445993 4,6 Z" style="opacity:0.3;fill:#ffffff;fill-opacity:1"/>
</svg>
