<?xml version="1.0" encoding="UTF-8"?>
<svg xmlns="http://www.w3.org/2000/svg" version="1.1" width="160" height="24" viewBox="0 0 160 24">
<!-- restore button: one cell per Aurorae state prefix -->
<g id="active-center" transform="translate(0,0)"><rect x="0" y="0" width="24" height="24" fill="#000000" fill-opacity="0"/><circle cx="12" cy="12" r="8.5" fill="none" stroke="#00D9D9" stroke-width="5.0" stroke-opacity="0.1"/><circle cx="12" cy="12" r="8.5" fill="none" stroke="#00D9D9" stroke-width="3.0" stroke-opacity="0.22"/><circle cx="12" cy="12" r="8.5" fill="none" stroke="#00D9D9" stroke-width="1.6" stroke-opacity="1.0"/><path d="M7.4 10.2 H13.4 V16.2 H7.4 Z M10.2 10.2 V7.8 H16.2 V13.8 H13.4" fill="none" stroke="#00D9D9" stroke-width="1.6" stroke-opacity="1.0" stroke-linecap="round" stroke-linejoin="round"/></g>
<g id="hover-center" transform="translate(32,0)"><rect x="0" y="0" width="24" height="24" fill="#000000" fill-opacity="0"/><circle cx="12" cy="12" r="8.5" fill="#00D9D9" fill-opacity="0.18"/><circle cx="12" cy="12" r="8.5" fill="none" stroke="#00D9D9" stroke-width="5.0" stroke-opacity="0.16000000000000003"/><circle cx="12" cy="12" r="8.5" fill="none" stroke="#00D9D9" stroke-width="3.0" stroke-opacity="0.35200000000000004"/><circle cx="12" cy="12" r="8.5" fill="none" stroke="#00D9D9" stroke-width="1.6" stroke-opacity="1.0"/><path d="M7.4 10.2 H13.4 V16.2 H7.4 Z M10.2 10.2 V7.8 H16.2 V13.8 H13.4" fill="none" stroke="#FFFFFF" stroke-width="1.8" stroke-opacity="1.0" stroke-linecap="round" stroke-linejoin="round"/></g>
<g id="pressed-center" transform="translate(64,0)"><rect x="0" y="0" width="24" height="24" fill="#000000" fill-opacity="0"/><circle cx="12" cy="12" r="8.5" fill="#00D9D9" fill-opacity="1"/><path d="M7.4 10.2 H13.4 V16.2 H7.4 Z M10.2 10.2 V7.8 H16.2 V13.8 H13.4" fill="none" stroke="#000000" stroke-width="1.9" stroke-opacity="1.0" stroke-linecap="round" stroke-linejoin="round"/></g>
<g id="inactive-center" transform="translate(96,0)"><rect x="0" y="0" width="24" height="24" fill="#000000" fill-opacity="0"/><circle cx="12" cy="12" r="8.5" fill="none" stroke="#4A3A5E" stroke-width="1.4" stroke-opacity="1.0"/><path d="M7.4 10.2 H13.4 V16.2 H7.4 Z M10.2 10.2 V7.8 H16.2 V13.8 H13.4" fill="none" stroke="#7E63A8" stroke-width="1.4" stroke-opacity="0.85" stroke-linecap="round" stroke-linejoin="round"/></g>
<g id="deactivated-center" transform="translate(128,0)"><rect x="0" y="0" width="24" height="24" fill="#000000" fill-opacity="0"/><circle cx="12" cy="12" r="8.5" fill="none" stroke="#4A3A5E" stroke-width="1.2" stroke-opacity="0.45"/><path d="M7.4 10.2 H13.4 V16.2 H7.4 Z M10.2 10.2 V7.8 H16.2 V13.8 H13.4" fill="none" stroke="#4A3A5E" stroke-width="1.2" stroke-opacity="0.45" stroke-linecap="round" stroke-linejoin="round"/></g>
</svg>
